<svg xmlns="http://www.w3.org/2000/svg" viewBox="110.24 233.13 375.12 375.12" width="400" height="400">
<path fill="#C8E6D4" d="M262.48,453.1c.36.17.72.35,1.09.52,1.06.49,2.1,1.05,3.19,1.46,1.02.38,2.1.61,3.16.91.28.11.56.21.85.32,1.14.58,2.31,1.06,3.62,1.05.15.04.31.07.46.11.8.58,1.7.71,2.65.63l.47.09c.21.39.51.32.84.19.14.03.28.05.42.08.76.29,1.51.68,2.36.37.24.03.47.07.71.1.16.09.32.24.49.26,2.71.42,5.44.54,8.19.52,2.07-.02,4.13-.06,6.16-.48.36-.08.72-.21,1.07-.32.16-.03.32-.05.48-.08.22-.03.45-.06.67-.08.57-.15,1.14-.3,1.7-.45-.21.21-.38.52-.64.62-2.51.99-4.99,2.08-7.55,2.88-2.22.69-4.54,1.07-6.82,1.56-2.45.53-4.93.86-7.43.87-3.59.01-7.17-.09-10.76-.23-1.78-.07-3.58-.19-5.33-.52-2.95-.57-5.87-1.31-8.8-2.01-.92-.22-1.84-.5-2.74-.81-3-1.03-6.05-1.95-8.98-3.17-3.01-1.26-5.94-2.71-8.8-4.27-2.72-1.48-5.3-3.22-7.94-4.84-.76-.47-1.52-.92-2.28-1.38-.07.05-.13.09-.2.14.23.78.43,1.57.71,2.34,1.25,3.45,2.86,6.73,4.8,9.85.56.89,1.23,1.71,1.85,2.56.05.07.09.14.14.21.12.17.24.34.36.5.04.07.08.14.13.21.19.25.38.51.57.76.05.07.09.14.14.21.13.16.26.33.39.49.11.15.23.31.34.46.27.84.72,1.54,1.53,1.96.05.07.1.13.15.2.14.75.68,1.15,1.3,1.48.21.23.41.45.62.68.36.87,1.74,2.25,2.61,2.62.39.36.78.72,1.17,1.09.32.39.59.84.98,1.15,1.75,1.41,3.53,2.8,5.32,4.17.43.32.94.53,1.41.8.07.04.14.09.21.13.47.71,1.12,1.15,1.97,1.29.08.02.15.07.2.12.73.5,1.42,1.1,2.21,1.49,2.84,1.41,5.65,2.91,8.59,4.09,2.6,1.04,5.34,1.73,8.03,2.52.73.21,1.51.22,2.27.33.16.03.32.05.47.08,1.17.58,2.42.78,3.72.66.22.03.43.05.65.08.16.09.32.23.49.25,1.49.17,2.99.46,4.49.45,4.26-.01,8.52-.13,12.78-.25.56-.02,1.1-.3,1.66-.46.22-.02.44-.05.66-.07.43.02.87.11,1.29.04,1.17-.19,2.33-.42,3.48-.7.7-.17,1.38-.47,2.06-.72.16-.04.32-.07.48-.11.29,0,.61.09.88.02,1.33-.35,2.65-.75,3.98-1.12.51-.14,1.02-.27,1.66-.43-.31.62-.52,1.05-.74,1.49l-.14.2c-.55.24-1,.57-1.06,1.23-.06.06-.12.13-.18.19-.14.07-.3.12-.4.22-1.38,1.3-2.76,2.6-4.13,3.92-.25.24-.43.54-.64.82-.15.13-.31.26-.46.39-.53.02-.82.34-.99.8-.07.06-.13.11-.2.17-.21.08-.45.12-.63.25-.61.45-1.18.94-1.78,1.39-3,2.23-6.18,4.17-9.52,5.86-.22.11-.39.34-.59.52-.13.07-.27.13-.4.2-.22.04-.46.03-.67.12-2.76,1.12-5.47,2.36-8.27,3.34-4.21,1.48-8.56,2.36-13.01,2.72-.24.02-.46.2-.69.3-.24.02-.48.04-.72.05-.46-.05-.91-.14-1.37-.13-1.37.02-2.73.08-4.09.13-.16-.01-.33-.02-.49-.03-.19-.11-.37-.3-.56-.31-2.26-.12-4.46-.56-6.63-1.2-2.6-.77-5.07-1.84-7.42-3.18-1.12-.64-2.27-1.25-3.41-1.87-.07-.05-.15-.1-.22-.15-.18-.2-.33-.43-.53-.59-2.34-1.83-4.69-3.66-7.05-5.47-.17-.13-.42-.17-.63-.25l-.44-.38c-.4-.7-.86-1.34-1.72-1.54-.07-.05-.13-.11-.2-.16-.16-.22-.28-.48-.47-.66-.73-.68-1.5-1.31-2.21-2-1.43-1.39-2.82-2.82-4.24-4.22-.27-.27-.61-.48-.92-.71-.05-.06-.1-.13-.15-.19-.05-.18-.06-.4-.17-.53-.61-.73-1.24-1.45-1.89-2.15-.26-.28-.6-.49-.9-.73-.05-.07-.1-.13-.16-.2-.05-.66-.5-.99-1.04-1.25-.05-.07-.1-.14-.15-.2-.32-.8-.74-1.52-1.53-1.95-.05-.07-.1-.14-.15-.21-.58-1.31-1.41-2.44-2.46-3.4-.05-.07-.11-.14-.16-.22-.18-.82-.61-1.46-1.3-1.94-.05-.07-.1-.14-.15-.22-.65-1.17-1.31-2.34-1.94-3.52-1.61-3.01-3.32-5.98-4.78-9.06-1.24-2.62-2.16-5.39-3.26-8.07-1.4-3.43-2.35-7.02-3.13-10.62-.79-3.68-1.59-7.37-1.82-11.15-.2-3.21-.64-6.4-.84-9.61-.14-2.19-.11-4.4-.03-6.59.07-2.18.3-4.36.45-6.55.02-.34-.07-.69-.11-1.03.02-.16.04-.32.06-.48.1-.28.26-.54.3-.83.26-1.84.44-3.68.74-5.51.29-1.75.7-3.48,1.04-5.22.06-.33.02-.69.03-1.03l.1-.42c.14-.27.33-.53.4-.82,1.01-4.09,2.23-8.12,3.78-12.03,1.32-3.36,2.82-6.66,4.23-9.98.4-.94.79-1.9,1.18-2.84.04-.07.08-.15.12-.22.16-.16.36-.29.47-.48,2.13-3.93,4.42-7.76,6.94-11.45.17-.25.25-.55.37-.83.04-.07.09-.14.13-.2.65-.28.95-.81,1.07-1.48.05-.07.1-.13.15-.2.29-.26.6-.49.85-.78,1.54-1.72,3.06-3.46,4.6-5.18.13-.15.36-.21.77-.44-.16.45-.22.67-.31.87-2.4,5.14-4.02,10.54-5.21,16.07-.16.72-.14,1.48-.2,2.23-.02.14-.04.29-.07.43-.39.95-.64,1.91-.38,2.94-.03.22-.06.44-.09.65-.41.34-.34.74-.15,1.16-.02.16-.05.32-.07.48-.49.69-.33,1.42-.17,2.16-.02.24-.04.48-.06.72-.1.24-.28.47-.28.71-.02,3.39-.02,6.78,0,10.17,0,.23.19.46.3.69.01.16.03.33.04.49-.28,1.23-.09,2.4.37,3.55.04.3.07.59.11.89.07.89.11,1.79.23,2.67.06.44.27.86.41,1.29.03.16.06.32.09.48-.14,1.02.06,1.97.61,2.84.03.14.06.27.09.41,0,.27-.06.56.01.8.94,3.04,1.86,6.08,2.89,9.09.4,1.19,1.05,2.29,1.59,3.43.09.21.19.41.28.62.47.99.94,1.99,1.41,2.98.07.14.14.29.21.43.46.98.89,1.98,1.39,2.94.22.43.58.78.88,1.16.04.07.08.15.12.22.11.17.22.34.34.51.04.08.09.15.13.23.27.96.69,1.83,1.54,2.42.05.07.1.14.14.21.12.17.23.34.35.51.04.07.09.14.13.21.12.17.24.33.36.5.04.07.09.14.13.2.12.17.24.34.36.51.04.07.08.13.12.2.12.17.25.34.37.51.12.15.23.3.35.45-.05.43.17.67.56.77.05.07.1.13.15.2.13.17.25.33.38.5.12.15.23.31.35.46-.04.44.18.68.6.75.12.15.23.3.35.46-.03.44.2.67.62.74.12.15.24.3.35.46,0,.57.36.84.86.98.51.55,1.02,1.11,1.53,1.66.32.43.58.92.96,1.28.67.64,1.41,1.21,2.12,1.81.56.51,1.12,1.02,1.68,1.52.13.51.4.85.97.87.15.12.3.24.46.36.24.2.49.41.73.61.24.19.48.38.72.57.16.13.32.26.48.39.24.19.48.38.73.56.16.13.33.25.49.38.16.12.31.23.47.35.16.13.33.25.49.38.15.12.31.23.46.35.17.12.33.25.5.37.07.05.14.1.21.15.25.19.51.37.76.56l.21.14c.17.12.34.23.5.35.07.04.14.09.21.13.17.12.33.24.5.36.07.04.15.09.22.13.17.11.34.22.51.33l.21.13c.17.11.34.23.52.34.47.29.93.57,1.4.86.33.2.66.4.98.59.23.13.46.27.68.4.18.1.35.21.53.31.23.13.46.25.68.38.49.28.98.55,1.47.83.07.04.15.08.22.12.94.97,2.24,1.28,3.37,1.92.15.08.37.04.56.05Z"/>
<path fill="#C8E6D4" d="M364.16,464.76c5.59-7.63,9.01-16.18,10.49-25.48.95-5.94,1.04-11.91.21-17.92-1.56-11.28-5.98-21.32-12.59-30.49-2.72-3.77-5.77-7.25-8.88-10.7-.1-.11-.18-.24-.35-.48,1.17-.05,2.15.27,3.11.53,7.88,2.18,15.27,5.42,22.04,10.04,6.3,4.3,11.87,9.35,16.12,15.73,2.61,3.92,4.56,8.15,5.49,12.81.74,3.73.67,7.47.28,11.22-.55,5.33-1.31,10.63-2.71,15.81-3.57,13.29-9.49,25.41-17.95,36.29-4.83,6.21-10.11,11.98-16.12,17.06-8.45,7.14-17.72,12.97-28.04,17.09-5.69,2.27-11.5,4.17-17.5,5.42-6.15,1.29-12.35,2.14-18.65,2.38-4.33.16-8.63.08-12.95-.16-1.31-.07-2.6-.28-3.96-.65.39-.14.78-.31,1.18-.41,7.13-1.79,13.92-4.47,20.34-8.05,8.28-4.62,15.51-10.55,21.9-17.54,5.31-5.8,9.54-12.31,12.98-19.35,3.34-6.84,5.65-14.01,6.76-21.54,1.19-8.07,1.26-16.16.16-24.26-.82-6.01-2.28-11.83-4.74-17.4-2.46-5.58-5.81-10.56-9.88-15.08-.32-.36-.63-.73-.94-1.09.27-.44.49-.16.77.02,3.24,2.1,6.28,4.47,9.15,7.05,2.61,2.35,4.88,5.03,6.98,7.84,1.22,1.62,2.32,3.32,3.5,4.97,1.82,2.52,3.28,5.25,4.66,8.02,1.87,3.74,3.43,7.6,4.5,11.64.64,2.41,1.21,4.84,1.71,7.29.35,1.7.55,3.44.75,5.17.26,2.16.64,4.33.64,6.5,0,2.9.58,5.8.06,8.7-.03.18.01.37.02.59.94-.66,1.02-.74,1.41-1.57Z"/>
<path fill="#C8E6D4" d="M309.14,340.98c-5.44-1.08-10.9-.92-16.36-.23-8.48,1.07-16.39,3.83-23.74,8.19-5.48,3.25-10.24,7.37-14.63,11.96-5.4,5.64-9.6,12.06-12.75,19.18-1.31,2.96-2.42,6-3.63,9-.07.18-.17.35-.34.68-.18-.34-.34-.54-.4-.77-1.09-4.03-1.71-8.14-1.92-12.3-.51-10.06,1.14-19.78,4.99-29.07,2.75-6.65,6.61-12.6,12.13-17.34,3.78-3.25,8.14-5.46,12.84-7.08,6.83-2.35,13.82-4.03,20.96-4.97,7.64-1.01,15.3-1.08,22.97-.17,5.25.62,10.44,1.49,15.52,2.97,8,2.34,15.73,5.36,23.04,9.41,4.03,2.23,8.05,4.46,11.68,7.31,3.52,2.77,7.03,5.55,10.37,8.53,8.06,7.21,14.58,15.68,19.87,25.09,2.31,4.11,4.38,8.36,6.07,12.77.07.17.11.35,0,.66-.27-.26-.55-.5-.81-.77-5.85-6.05-12.48-11.09-19.79-15.24-5.47-3.11-11.19-5.68-17.18-7.61-5.65-1.81-11.42-2.99-17.33-3.59-5.24-.53-10.47-.51-15.68.13-6.37.78-12.56,2.36-18.52,4.79-7.8,3.18-14.97,7.43-21.37,12.91-8.65,7.41-15.73,16.02-19.91,26.77-.12.3-.26.58-.4.87-.61-.51,0-1.03,0-1.55-.02-2.12.52-4.16.97-6.21,1.15-5.22,2.89-10.24,5.28-15.02,1.9-3.8,3.97-7.52,6.54-10.92,2.06-2.73,4.09-5.48,6.56-7.87,1.55-1.5,3.05-3.06,4.59-4.56.71-.69,1.45-1.37,2.24-1.97,1.76-1.35,3.55-2.67,5.35-3.97,3.36-2.42,6.87-4.6,10.54-6.52,1.83-.95,3.7-1.84,5.59-2.77-.54-.19-1.04-.42-1.57-.53-.57-.12-1.17-.13-1.75-.18Z"/>
<path fill="#4CAF82" d="M230.13,461.88c-.62-.85-1.29-1.67-1.85-2.56-1.94-3.11-3.55-6.4-4.8-9.85-.28-.76-.47-1.56-.71-2.34.07-.05.13-.09.2-.14.76.46,1.52.92,2.28,1.38,2.64,1.62,5.22,3.36,7.94,4.84,2.86,1.56,5.8,3.01,8.8,4.27,2.92,1.22,5.98,2.14,8.98,3.17.9.31,1.81.59,2.74.81,2.93.7,5.85,1.44,8.8,2.01,1.75.34,3.55.46,5.33.52,3.58.14,7.17.25,10.76.23,2.5-.01,4.98-.33,7.43-.87,2.28-.5,4.6-.87,6.82-1.56,2.57-.8,5.05-1.89,7.55-2.88.26-.1.43-.41.64-.62.56-.15,1.13-.27,1.67-.47,1.24-.45,2.48-.89,3.69-1.4,4.94-2.08,9.67-4.55,14.01-7.73,4.07-2.98,7.83-6.31,11.1-10.17,1.18-1.4,2.29-2.87,3.43-4.3.19-.24.41-.45.76-.84.23,1.01.2,1.85.09,2.64-.83,6.04-2.36,11.86-5.46,17.2-2.06,3.54-4.34,6.9-7.31,9.73-4.02,3.84-8.64,6.78-13.72,9.05-4.02,1.8-8.19,3.15-12.47,4.11-2.17.49-4.39.77-6.6,1.08-3.37.47-6.76.56-10.16.44-8.15-.29-16.07-1.73-23.71-4.65-5.68-2.17-11.11-4.82-16.17-8.23-4.47-3.01-8.39-6.63-12.06-10.54-1.04-1.1-1.97-2.3-2.95-3.45-.22-.26-.46-.51-.91-.69.03.23.02.48.1.68,1.39,3.5,3.13,6.82,5.19,9.97.23.36.38.76.57,1.15Z"/>
<path fill="#4CAF82" d="M309.14,340.98c.58.06,1.18.06,1.75.18.53.11,1.03.35,1.57.53-1.89.93-3.76,1.82-5.59,2.77-3.67,1.91-7.18,4.09-10.54,6.52-1.8,1.3-3.59,2.62-5.35,3.97-.79.6-1.53,1.28-2.24,1.97-1.55,1.5-3.04,3.06-4.59,4.56-2.47,2.39-4.5,5.15-6.56,7.87-2.57,3.4-4.64,7.12-6.54,10.92-2.39,4.78-4.13,9.8-5.28,15.02-.45,2.05-.99,4.09-.97,6.21,0,.52-.6,1.04,0,1.55-.33,1.06-.67,2.11-.98,3.17-.9,3.1-1.67,6.23-1.99,9.46-.24,2.39-.56,4.78-.37,7.17.24,3.06.64,6.1,1.02,9.15.41,3.26,1.47,6.36,2.43,9.48.08.25.1.52.21,1.12-.57-.38-.93-.57-1.22-.84-4.85-4.42-9.1-9.31-11.87-15.34-1.78-3.87-2.98-7.9-3.51-12.12-.21-1.62-.4-3.25-.45-4.88-.13-3.85.42-7.64,1.19-11.4,1.23-6.02,3.44-11.7,6.26-17.14,2.52-4.88,5.64-9.36,9.29-13.47,1.59-1.79,3.18-3.58,4.85-5.3,3.67-3.77,7.89-6.85,12.27-9.73,4.83-3.17,9.93-5.79,15.36-7.76,3.26-1.18,6.56-2.26,9.99-2.87.66-.12,1.34-.17,2.07-.25-.07-.18-.14-.35-.2-.53Z"/>
<path fill="#4CAF82" d="M364.16,464.76c-.39.83-.47.91-1.41,1.57-.01-.22-.06-.41-.02-.59.52-2.9-.05-5.8-.06-8.7,0-2.17-.38-4.34-.64-6.5-.21-1.73-.41-3.47-.75-5.17-.5-2.44-1.07-4.88-1.71-7.29-1.07-4.04-2.64-7.91-4.5-11.64-1.38-2.77-2.85-5.5-4.66-8.02-1.18-1.64-2.29-3.35-3.5-4.97-2.11-2.81-4.37-5.49-6.98-7.84-2.86-2.58-5.91-4.95-9.15-7.05-.27-.18-.5-.46-.77-.02-.33-.28-.7-.53-.99-.85-3.35-3.71-7.36-6.6-11.61-9.14-3.08-1.85-6.31-3.43-9.67-4.72-3.14-1.21-6.37-2.05-9.68-2.63-1.61-.28-3.23-.5-4.84-.76-.26-.04-.49-.19-.99-.4.86-.37,1.48-.68,2.13-.91,3.65-1.3,7.33-2.5,11.17-3.07,4.03-.6,8.07-.76,12.16-.18,4.99.71,9.73,2.13,14.18,4.48,4.22,2.23,8.1,4.95,11.54,8.28,3.89,3.76,7.41,7.83,10.38,12.36,2.14,3.27,3.99,6.71,5.71,10.22,3.15,6.42,5.15,13.2,6.46,20.2,1.05,5.64,1.33,11.34,1.02,17.05-.28,5.11-1.31,10.11-2.9,14.98-.11.34-.24.68-.29,1.03-.01.08.26.2.4.3Z"/>
<path fill="#4CAF82" d="M316.89,420.21c.2,5.41-1.84,10.08-5.63,13.93-4.34,4.4-9.67,6.13-15.84,5.19-3.13-.47-6.06-1.47-8.55-3.43-4.02-3.16-6.55-7.28-7.37-12.35-.63-3.9-.31-7.74,1.38-11.35,2.24-4.81,5.69-8.49,10.73-10.37,2.7-1.01,5.56-1.32,8.47-.99,6.99.79,11.84,4.59,14.99,10.7,1.13,2.2,1.94,5.05,1.82,8.68Z"/>
<path fill="#4CAF82" d="M196.02,408.6c.04.35.13.69.11,1.03-.14,2.18-.37,4.36-.45,6.55-.07,2.2-.11,4.4.03,6.59.2,3.21.64,6.4.84,9.61.23,3.79,1.03,7.48,1.82,11.15.78,3.6,1.72,7.18,3.13,10.62,1.1,2.69,2.02,5.45,3.26,8.07,1.46,3.08,3.17,6.05,4.78,9.06.63,1.18,1.29,2.35,1.94,3.52-.41-.57-.85-1.12-1.23-1.71-4.77-7.45-8.29-15.46-10.78-23.94-1.47-4.99-2.52-10.06-3.17-15.21-.41-3.24-.63-6.51-.81-9.78-.16-2.83-.22-5.67-.17-8.5.04-2.23.31-4.46.49-6.68.01-.14.13-.26.2-.4Z"/>
<path fill="#4CAF82" d="M217.63,367.35c.06-.74.05-1.5.2-2.23,1.19-5.53,2.81-10.93,5.21-16.07.09-.2.15-.41.31-.87-.41.23-.63.3-.77.44-1.54,1.72-3.06,3.46-4.6,5.18-.25.28-.57.52-.85.78.61-.86,1.15-1.79,1.84-2.58,1.34-1.53,2.76-2.98,4.17-4.45.3-.31.69-.52,1.22-.67-.44,1.03-.86,2.08-1.33,3.1-2.46,5.36-4.06,10.97-5.11,16.76-.04.21-.2.41-.3.61Z"/>
<path fill="#4CAF82" d="M207.88,369.44c-.39.95-.78,1.9-1.18,2.84-1.42,3.33-2.91,6.62-4.23,9.98-1.54,3.92-2.77,7.94-3.78,12.03-.07.29-.26.54-.4.82.32-1.42.55-2.86.96-4.25,1.8-6.18,4-12.2,6.74-18.03.42-.9.86-1.8,1.32-2.68.14-.27.38-.48.57-.72Z"/>
<path fill="#4CAF82" d="M265.01,510.68c.23-.1.46-.28.69-.3,4.45-.36,8.81-1.25,13.01-2.72,2.8-.98,5.51-2.23,8.27-3.34.21-.08.45-.08.67-.12-1.46.72-2.87,1.53-4.38,2.14-3.33,1.35-6.71,2.59-10.25,3.26-2.31.44-4.64.77-6.96,1.13-.34.05-.71-.03-1.06-.05Z"/>
<path fill="#4CAF82" d="M270.77,488.83c-.76-.1-1.54-.11-2.27-.33-2.69-.79-5.44-1.48-8.03-2.52-2.94-1.18-5.75-2.67-8.59-4.09-.79-.39-1.48-.99-2.21-1.49,1.13.58,2.27,1.13,3.38,1.74,4.21,2.33,8.66,4.09,13.27,5.44,1.34.39,2.71.67,4.07,1.01.14.04.26.15.39.24Z"/>
<path fill="#4CAF82" d="M295.02,489.64c-.55.16-1.1.45-1.66.46-4.26.12-8.52.23-12.78.25-1.5,0-2.99-.28-4.49-.45-.17-.02-.33-.17-.49-.25.31-.02.62-.08.92-.05,4.66.53,9.32.62,13.99.26,1.31-.1,2.62-.21,3.94-.31.18-.01.37.06.56.1Z"/>
<path fill="#4CAF82" d="M240.32,504.12c1.14.62,2.28,1.23,3.41,1.87,2.35,1.34,4.81,2.41,7.42,3.18,2.17.64,4.37,1.08,6.63,1.2.19.01.37.21.56.31-1.26-.09-2.55-.06-3.78-.29-4.99-.94-9.58-2.9-13.76-5.79-.18-.13-.32-.33-.47-.49Z"/>
<path fill="#4CAF82" d="M298.19,458.9c-.36.11-.71.24-1.07.32-2.03.43-4.09.46-6.16.48-2.74.03-5.47-.1-8.19-.52-.17-.03-.33-.17-.49-.26,1.14.07,2.29.1,3.43.21,3.78.35,7.55.3,11.32-.22.38-.05.78-.01,1.17-.01Z"/>
<path fill="#4CAF82" d="M288.07,503.99c.19-.18.36-.4.59-.52,3.34-1.69,6.52-3.62,9.52-5.86.6-.45,1.18-.94,1.78-1.39.18-.13.42-.17.63-.25-.89.77-1.73,1.6-2.68,2.3-2.87,2.14-5.95,3.95-9.17,5.52-.2.1-.44.13-.66.19Z"/>
<path fill="#4CAF82" d="M215.78,356.46c-.12.28-.2.58-.37.83-2.52,3.69-4.82,7.52-6.94,11.45-.1.19-.31.32-.47.48.05-.19.06-.39.14-.56,2.13-4.11,4.55-8.04,7.19-11.84.1-.15.3-.24.45-.36Z"/>
<path fill="#4CAF82" d="M198.19,395.53c0,.35.03.7-.03,1.03-.34,1.74-.75,3.47-1.04,5.22-.3,1.83-.49,3.67-.74,5.51-.04.28-.2.55-.3.83.06-1.06.03-2.14.2-3.18.47-2.86,1.01-5.71,1.54-8.56.06-.3.24-.57.37-.85Z"/>
<path fill="#4CAF82" d="M223.1,413.41c-.54-1.14-1.19-2.24-1.59-3.43-1.02-3.01-1.94-6.06-2.89-9.09-.08-.24-.01-.53-.01-.8.37,1.16.7,2.33,1.11,3.48,1.09,3.1,2.21,6.19,3.31,9.28.06.17.05.37.07.56Z"/>
<path fill="#4CAF82" d="M221.7,487.99c.31.24.64.44.92.71,1.42,1.4,2.81,2.83,4.24,4.22.71.69,1.49,1.32,2.21,2,.19.18.32.43.47.66-.14-.04-.33-.04-.43-.13-2.43-2.34-4.85-4.68-7.27-7.04-.1-.09-.1-.28-.15-.42Z"/>
<path fill="#4CAF82" d="M216.66,387.47c-.1-.23-.29-.46-.3-.69-.02-3.39-.02-6.78,0-10.17,0-.24.18-.47.28-.71.04.19.1.38.1.58,0,3.47.01,6.95,0,10.42,0,.19-.06.39-.1.58Z"/>
<path fill="#4CAF82" d="M308.78,488.03c.22-.43.43-.87.74-1.49-.65.17-1.16.29-1.66.43-1.33.37-2.65.77-3.98,1.12-.27.07-.59,0-.88-.02.85-.27,1.71-.55,2.57-.82,1.25-.38,2.51-.76,3.76-1.13.36-.11.74-.17,1.38-.31-.68.96-1.1,1.75-1.92,2.21Z"/>
<path fill="#4CAF82" d="M231.89,497.67c.21.08.46.11.63.25,2.36,1.81,4.71,3.64,7.05,5.47.21.16.36.39.53.59-.66-.41-1.36-.76-1.98-1.23-1.84-1.37-3.67-2.78-5.48-4.2-.3-.23-.5-.58-.75-.88Z"/>
<path fill="#4CAF82" d="M247.29,478.85c-.47-.26-.99-.47-1.41-.8-1.79-1.37-3.57-2.75-5.32-4.17-.39-.31-.66-.76-.98-1.15.72.54,1.44,1.08,2.16,1.63,1.67,1.29,3.35,2.59,5.01,3.89.21.16.36.39.54.59Z"/>
<path fill="#4CAF82" d="M302.22,494.62c.21-.27.39-.58.64-.82,1.37-1.32,2.75-2.62,4.13-3.92.11-.1.27-.15.4-.22-.06.17-.07.4-.19.51-1.51,1.45-3.03,2.89-4.56,4.32-.1.09-.28.08-.43.12Z"/>
<path fill="#4CAF82" d="M302.51,488.2c-.69.24-1.36.54-2.06.72-1.15.28-2.31.5-3.48.7-.42.07-.86-.02-1.29-.04.95-.23,1.9-.49,2.87-.68,1.31-.26,2.64-.47,3.96-.7Z"/>
<path fill="#4CAF82" d="M258.83,510.72c1.36-.05,2.73-.11,4.09-.13.45,0,.91.09,1.37.13-1.21.07-2.42.16-3.63.18-.61.01-1.22-.12-1.84-.19Z"/>
<path fill="#4CAF82" d="M269.91,455.98c-1.05-.3-2.13-.52-3.16-.91-1.09-.41-2.13-.97-3.19-1.46.22.04.46.04.67.12,1.7.63,3.39,1.27,5.08,1.92.21.08.4.22.6.33Z"/>
<path fill="#4CAF82" d="M218.58,484.39c.3.24.64.45.9.73.65.7,1.27,1.42,1.89,2.15.11.13.12.35.17.53-1.23-.92-2.2-2.07-2.96-3.41Z"/>
<path fill="#4CAF82" d="M240.56,438.3c-.71-.6-1.45-1.17-2.12-1.81-.38-.37-.65-.85-.96-1.28,1.03,1.03,2.06,2.06,3.09,3.1Z"/>
<path fill="#4CAF82" d="M227.27,421.54c-.3-.39-.66-.74-.88-1.16-.5-.96-.93-1.96-1.39-2.94.76,1.37,1.51,2.74,2.27,4.11Z"/>
<path fill="#4CAF82" d="M213.09,477.18c1.05.97,1.88,2.09,2.46,3.4-1.03-.99-1.93-2.06-2.46-3.4Z"/>
<path fill="#4CAF82" d="M262.48,453.1c-.19-.01-.41.03-.56-.05-1.13-.63-2.43-.95-3.37-1.92,1.31.65,2.62,1.31,3.93,1.96Z"/>
<path fill="#4CAF82" d="M238.41,471.65c-.87-.37-2.25-1.75-2.61-2.62l2.61,2.62Z"/>
<path fill="#4CAF82" d="M217.82,396.36c-.14-.43-.35-.85-.41-1.29-.12-.88-.16-1.78-.23-2.67.21,1.32.43,2.64.64,3.96Z"/>
<path fill="#4CAF82" d="M217.07,391.51c-.46-1.15-.65-2.32-.37-3.55.12,1.18.25,2.37.37,3.55Z"/>
<path fill="#4CAF82" d="M274.96,489.56c-1.3.12-2.54-.08-3.72-.66,1.24.22,2.48.44,3.72.66Z"/>
<path fill="#4CAF82" d="M274.38,457.35c-1.31,0-2.48-.47-3.62-1.05,1.21.35,2.41.7,3.62,1.05Z"/>
<path fill="#4CAF82" d="M224.79,417c-.47-.99-.94-1.99-1.41-2.98.47.99.94,1.99,1.41,2.98Z"/>
<path fill="#4CAF82" d="M217.17,370.73c-.25-1.03,0-2,.38-2.94-.13.98-.26,1.96-.38,2.94Z"/>
<path fill="#4CAF82" d="M218.52,399.68c-.55-.87-.75-1.82-.61-2.84.2.95.41,1.89.61,2.84Z"/>
<path fill="#4CAF82" d="M229.41,424.91c-.85-.59-1.27-1.46-1.54-2.42.51.81,1.03,1.61,1.54,2.42Z"/>
<path fill="#4CAF82" d="M233.73,466.68c-.81-.42-1.26-1.12-1.53-1.96l1.53,1.96Z"/>
<path fill="#4CAF82" d="M277.49,458.09c-.95.08-1.85-.05-2.65-.63.88.21,1.77.42,2.65.63Z"/>
<path fill="#4CAF82" d="M215.71,480.79c.79.43,1.21,1.15,1.53,1.95-.76-.46-1.21-1.15-1.53-1.95Z"/>
<path fill="#4CAF82" d="M229.74,495.74c.86.2,1.31.84,1.72,1.54-.57-.51-1.14-1.03-1.72-1.54Z"/>
<path fill="#4CAF82" d="M281.57,458.82c-.85.31-1.6-.08-2.36-.37.79.12,1.57.25,2.36.37Z"/>
<path fill="#4CAF82" d="M216.7,375.18c-.17-.74-.33-1.47.17-2.16-.06.72-.11,1.44-.17,2.16Z"/>
<path fill="#4CAF82" d="M249.47,480.28c-.85-.14-1.5-.58-1.97-1.29.66.43,1.31.86,1.97,1.29Z"/>
<path fill="#4CAF82" d="M211.64,475.03c.68.48,1.12,1.12,1.3,1.94-.43-.65-.87-1.29-1.3-1.94Z"/>
<path fill="#4CAF82" d="M235.18,468.35c-.62-.33-1.16-.73-1.3-1.48.43.49.87.99,1.3,1.48Z"/>
<path fill="#4CAF82" d="M216.99,354.78c-.12.66-.42,1.2-1.07,1.48.36-.49.72-.98,1.07-1.48Z"/>
<path fill="#4CAF82" d="M307.57,489.47c.06-.66.51-.99,1.06-1.23-.35.41-.71.82-1.06,1.23Z"/>
<path fill="#4CAF82" d="M217.39,482.95c.54.25.98.59,1.04,1.25-.35-.42-.69-.83-1.04-1.25Z"/>
<path fill="#4CAF82" d="M258.33,451.02c-.49-.28-.98-.55-1.47-.83.49.28.98.55,1.47.83Z"/>
<path fill="#4CAF82" d="M216.94,372.54c-.19-.42-.27-.82.15-1.16-.05.39-.1.77-.15,1.16Z"/>
<path fill="#4CAF82" d="M243.21,440.69c-.57-.01-.84-.36-.97-.87.32.29.65.58.97.87Z"/>
<path fill="#4CAF82" d="M235.94,433.54c-.5-.14-.85-.41-.86-.98.29.33.57.66.86.98Z"/>
<path fill="#4CAF82" d="M300.78,495.81c.17-.46.46-.79.99-.8-.33.27-.66.54-.99.8Z"/>
<path fill="#4CAF82" d="M254.97,449.09c-.33-.2-.66-.4-.98-.59.33.2.66.4.98.59Z"/>
<path fill="#4CAF82" d="M249.7,445.72c-.25-.19-.51-.37-.76-.56.25.19.51.37.76.56Z"/>
<path fill="#4CAF82" d="M244.4,441.66c-.24-.2-.49-.41-.73-.61.24.2.49.41.73.61Z"/>
<path fill="#4CAF82" d="M231.32,463.56c-.19-.25-.38-.51-.57-.76.19.25.38.51.57.76Z"/>
<path fill="#4CAF82" d="M233.77,430.9c-.42-.08-.64-.31-.6-.75.2.25.4.5.6.75Z"/>
<path fill="#4CAF82" d="M232.29,428.99c-.4-.1-.62-.34-.56-.77.19.26.38.51.56.77Z"/>
<path fill="#4CAF82" d="M234.73,432.1c-.42-.07-.64-.3-.62-.74.21.25.41.49.62.74Z"/>
<path fill="#4CAF82" d="M299.34,458.74c-.22.03-.45.06-.67.08.22-.03.45-.06.67-.08Z"/>
<path fill="#4CAF82" d="M278.8,458.37c-.32.14-.63.2-.84-.19.28.06.56.13.84.19Z"/>
<path fill="#4CAF82" d="M227.73,422.27c-.11-.17-.22-.34-.34-.51.11.17.22.34.34.51Z"/>
<path fill="#4CAF82" d="M251.12,446.7c-.17-.12-.33-.24-.5-.36.17.12.33.24.5.36Z"/>
<path fill="#4CAF82" d="M248.73,445.02c-.17-.12-.33-.25-.5-.37.17.12.33.25.5.37Z"/>
<path fill="#4CAF82" d="M247.76,444.3c-.16-.13-.33-.25-.49-.38.16.13.33.25.49.38Z"/>
<path fill="#4CAF82" d="M246.8,443.58c-.16-.13-.33-.25-.49-.38.16.13.33.25.49.38Z"/>
<path fill="#4CAF82" d="M245.59,442.63c-.16-.13-.32-.26-.48-.39.16.13.32.26.48.39Z"/>
<path fill="#4CAF82" d="M250.41,446.21c-.17-.12-.34-.23-.5-.35.17.12.34.23.5.35Z"/>
<path fill="#4CAF82" d="M256.18,449.81c-.18-.1-.35-.21-.53-.31.18.1.35.21.53.31Z"/>
<path fill="#4CAF82" d="M230.63,462.59l-.36-.5.36.5Z"/>
<path fill="#4CAF82" d="M252.58,447.64c-.17-.11-.34-.23-.52-.34.17.11.34.23.52.34Z"/>
<path fill="#4CAF82" d="M232.82,429.69c-.13-.17-.25-.33-.38-.5.13.17.25.33.38.5Z"/>
<path fill="#4CAF82" d="M231.86,464.26c-.13-.16-.26-.33-.39-.49.13.16.26.33.39.49Z"/>
<path fill="#4CAF82" d="M251.85,447.17c-.17-.11-.34-.22-.51-.33.17.11.34.22.51.33Z"/>
<path fill="#4CAF82" d="M231.38,427.77c-.12-.17-.25-.34-.37-.51.12.17.25.34.37.51Z"/>
<path fill="#4CAF82" d="M230.89,427.06c-.12-.17-.24-.34-.36-.51.12.17.24.34.36.51Z"/>
<path fill="#4CAF82" d="M230.39,426.35c-.12-.17-.24-.33-.36-.5.12.17.24.33.36.5Z"/>
<path fill="#4CAF82" d="M229.9,425.63c-.12-.17-.23-.34-.35-.51.12.17.23.34.35.51Z"/>
</svg>