<svg xmlns="http://www.w3.org/2000/svg" viewBox="0 0 96 96" fill="none">
<rect x="30" y="30" width="36" height="36" rx="4" stroke="#1F2A44" stroke-width="2" fill="none"/><line x1="36" y1="22" x2="36" y2="30" stroke="#1F2A44" stroke-width="2"/><line x1="44" y1="22" x2="44" y2="30" stroke="#1F2A44" stroke-width="2"/><line x1="52" y1="22" x2="52" y2="30" stroke="#1F2A44" stroke-width="2"/><line x1="60" y1="22" x2="60" y2="30" stroke="#1F2A44" stroke-width="2"/><line x1="36" y1="66" x2="36" y2="74" stroke="#1F2A44" stroke-width="2"/><line x1="44" y1="66" x2="44" y2="74" stroke="#1F2A44" stroke-width="2"/><line x1="52" y1="66" x2="52" y2="74" stroke="#1F2A44" stroke-width="2"/><line x1="60" y1="66" x2="60" y2="74" stroke="#1F2A44" stroke-width="2"/><line x1="22" y1="36" x2="30" y2="36" stroke="#1F2A44" stroke-width="2"/><line x1="22" y1="44" x2="30" y2="44" stroke="#1F2A44" stroke-width="2"/><line x1="22" y1="52" x2="30" y2="52" stroke="#1F2A44" stroke-width="2"/><line x1="22" y1="60" x2="30" y2="60" stroke="#1F2A44" stroke-width="2"/><line x1="66" y1="36" x2="74" y2="36" stroke="#1F2A44" stroke-width="2"/><line x1="66" y1="44" x2="74" y2="44" stroke="#1F2A44" stroke-width="2"/><line x1="66" y1="52" x2="74" y2="52" stroke="#1F2A44" stroke-width="2"/><line x1="66" y1="60" x2="74" y2="60" stroke="#1F2A44" stroke-width="2"/><line x1="42" y1="30" x2="42" y2="66" stroke="#8B7355" stroke-width="1" opacity="0.6"/><line x1="54" y1="30" x2="54" y2="66" stroke="#8B7355" stroke-width="1" opacity="0.6"/><line x1="30" y1="42" x2="66" y2="42" stroke="#8B7355" stroke-width="1" opacity="0.6"/><line x1="30" y1="54" x2="66" y2="54" stroke="#8B7355" stroke-width="1" opacity="0.6"/>
</svg>